<?xml version="1.0" encoding="utf-8"?>
<!-- Generator: IcoMoon.io  -->
<!DOCTYPE svg PUBLIC "-//W3C//DTD SVG 1.1//EN" "http://www.w3.org/Graphics/SVG/1.1/DTD/svg11.dtd">
<svg width="32" height="544" viewBox="0 0 32 544" data-tags="google plus, social" style="margin-left: 0px; margin-top: 0px;" xmlns="http://www.w3.org/2000/svg" fill="#ffffff"><path d="M 0.403,434.832c-0.122-1.266-0.226-2.535-0.292-3.815C 0.176,432.297, 0.281,433.566, 0.403,434.832zM 117.954,282.574c 46.005,1.369, 76.867-46.349, 68.931-106.599c-7.947-60.24-51.698-108.584-97.704-109.961
		c-46.013-1.365-76.87,44.741-68.926,105.00C 28.196,231.248, 71.931,281.201, 117.954,282.574zM 512.00,128.00L 512.00,85.345 C 512.00,38.405, 473.609,0.00, 426.671,0.00L 85.343,0.00 C 39.205,0.00, 1.337,37.116, 0.061,82.963
		c 29.181-25.693, 69.662-47.158, 111.437-47.158c 44.652,0.00, 178.622,0.00, 178.622,0.00l-39.974,33.809l-56.634,0.00 
		c 37.565,14.402, 57.578,58.062, 57.578,102.861c0.00,37.624-20.905,69.977-50.444,92.984c-28.822,22.451-34.286,31.854-34.286,50.939
		c0.00,16.289, 30.873,44.00, 47.016,55.394c 47.191,33.269, 62.458,64.156, 62.458,115.728c0.00,8.214-1.021,16.415-3.033,24.48l 153.871,0.00 
		C 473.609,512.00, 512.00,473.625, 512.00,426.655L 512.00,160.001 l-96.00,0.00 L 416.00,256.00 l-32.00,0.00 l0.00-96.00 l-95.999,0.00 l0.00-32.00 L 384.00,128.00 L 384.00,32.00 l 32.00,0.00 l0.00,96.00 L 512.00,128.00 zM 92.943,382.968c 10.807,0.00, 20.711-0.295, 30.968-0.295c-13.573-13.167-24.313-29.30-24.313-49.19
		c0.00-11.804, 3.782-23.168, 9.067-33.26c-5.391,0.385-10.895,0.497-16.563,0.497c-37.178,0.00-68.753-12.038-92.102-31.927l0.00,33.621 
		l 0.003,100.865C 26.723,390.592, 58.447,382.968, 92.943,382.968zM 1.71,443.629c-0.556-2.729-0.983-5.503-1.271-8.317C 0.726,438.126, 1.154,440.90, 1.71,443.629zM 227.725,476.423c-7.529-29.403-34.227-43.982-71.444-69.784c-13.536-4.366-28.447-6.937-44.447-7.104
		c-44.809-0.482-86.554,17.471-110.108,44.186C 9.686,482.574, 44.243,512.00, 85.343,512.00l 143.222,0.00 c 0.908-5.564, 1.348-11.316, 1.348-17.216
		C 229.913,488.517, 229.146,482.388, 227.725,476.423z" transform="scale(0.0625 0.0625)"></path><path d="M 13.656,89.568 C 13.656,91.913 12.207,93.767 8.101,93.917 C 5.696,92.549 3.68,90.575 2.261,88.202 C 3.001,86.374 5.314,84.982 7.958,85.011 C 8.709,85.019 9.408,85.14 10.044,85.346 C 11.791,86.56 13.2,87.319 13.554,88.703 C 13.62,88.983 13.656,89.272 13.656,89.568 ZM 16,64C 11.377,64, 7.213,65.962, 4.292,69.097c 1.154-0.639, 2.517-1.020, 3.966-1.020c 2.096,0, 8.014,0, 8.014,0
		L 14.48,69.956L 12.377,69.956 c 1.484,0.85, 2.273,2.602, 2.273,4.532c0,1.772-0.982,3.199-2.368,4.283
		c-1.353,1.056-1.609,1.499-1.609,2.398c0,0.767, 1.616,1.909, 2.359,2.467c 2.588,1.941, 3.112,3.162, 3.112,5.59
		c0,2.46-2.154,4.91-5.808,5.742C 12.097,95.634, 14.006,96, 16,96c 8.837,0, 16-7.163, 16-16S 24.837,64, 16,64z
		 M 24,76l0,4 l-2,0 l0-4 l-4,0 l0-2 l 4,0 L 22,70 l 2,0 l0,4 l 4,0 l0,2 L 24,76 zM 11.43,74.608 C 11.803,77.445 10.56,79.271 8.401,79.206 C 6.241,79.141 4.188,77.16 3.815,74.324 C 3.443,71.487 4.891,69.316 7.051,69.38 C 9.21,69.445 11.058,71.772 11.43,74.608 ZM 6.903,84.065 C 4.569,84.065 2.586,84.87 1.189,86.060 C 0.423,84.191 0,82.145 0,80 C 0,78.226 0.289,76.52 0.822,74.925 C 1.053,78.033 3.24,80.431 6.853,80.431 C 7.119,80.431 7.376,80.417 7.63,80.399 C 7.381,80.875 7.204,81.405 7.204,81.961 C 7.204,82.898 7.719,83.432 8.356,84.052 C 7.875,84.052 7.41,84.065 6.903,84.065 Z"></path><path d="M 17.996,160L 12,160 L 12,144 l-4,0 l0-5.514 l 4-0.002l-0.006-3.248C 11.993,130.737, 13.213,128, 18.512,128l 4.412,0 l0,5.515 l-2.757,0 
	c-2.063,0-2.163,0.77-2.163,2.209l-0.008,2.76l 4.959,0 l-0.585,5.514L 18,144L 17.996,160z"></path><path d="M 26.667,192L 5.334,192 C 2.4,192,0,194.4,0,197.334l0,21.332 C0,221.602, 2.4,224, 5.334,224l 21.333,0
	c 2.934,0, 5.333-2.398, 5.333-5.334L 32,197.334 C 32,194.4, 29.601,192, 26.667,192z M 27.206,208L 22,208 l0,14 l-6,0 L 16,208 l-2.891,0 l0-4.58 L 16,203.42 
	l0-2.975 C 16,196.403, 17.744,194, 22.496,194l 5.476,0 l0,4.955 l-4.473,0 c-1.328-0.002-1.492,0.692-1.492,1.985L 22,203.42l 6,0 
	L 27.206,208z"></path><path d="M 16,256 C 24.837,256 32,263.163 32,272 C 32,280.159 25.893,286.892 18,287.876 L 18,276 L 23.5,276 L 24,272 L 18,272 L 18,270 C 18,268.895 18.895,268 20,268 L 24,268 L 24,264 L 20,264 C 16.686,264 14,266.686 14,270 L 14,272 L 11,272 L 11,276 L 14,276 L 14,283.906 L 14,287.496 L 14,287.876 C 6.107,286.892 0,280.159 0,272 C 0,263.163 7.163,256 16,256 Z"></path><path d="M 32,326.076c-1.177,0.522-2.443,0.875-3.771,1.034c 1.355-0.813, 2.396-2.099, 2.887-3.632
	c-1.269,0.752-2.674,1.299-4.169,1.593c-1.198-1.276-2.904-2.073-4.792-2.073c-3.626,0-6.565,2.939-6.565,6.565
	c0,0.515, 0.058,1.016, 0.17,1.496c-5.456-0.274-10.294-2.888-13.532-6.86c-0.565,0.97-0.889,2.097-0.889,3.301
	c0,2.278, 1.159,4.287, 2.921,5.465c-1.076-0.034-2.088-0.329-2.974-0.821c-0.001,0.027-0.001,0.055-0.001,0.083
	c0,3.181, 2.263,5.834, 5.266,6.438c-0.551,0.15-1.131,0.23-1.73,0.23c-0.423,0-0.834-0.041-1.235-0.118
	c 0.836,2.608, 3.26,4.506, 6.133,4.559c-2.247,1.761-5.078,2.81-8.154,2.81c-0.53,0-1.052-0.031-1.566-0.092
	c 2.905,1.863, 6.356,2.95, 10.064,2.95c 12.076,0, 18.679-10.004, 18.679-18.68c0-0.285-0.006-0.568-0.019-0.849
	C 30.007,328.548, 31.12,327.392, 32,326.076z"></path><path d="M 26.667,384L 5.334,384 C 2.4,384,0,386.4,0,389.334l0,21.332 C0,413.602, 2.4,416, 5.334,416l 21.333,0 
	C 29.601,416, 32,413.602, 32,410.666L 32,389.334 C 32,386.4, 29.601,384, 26.667,384z M 26.189,394.682
	c 0.010,0.229, 0.015,0.46, 0.015,0.692c0,7.069-5.288,15.221-14.958,15.221c-2.969,0-5.732-0.886-8.059-2.404
	c 0.411,0.050, 0.83,0.075, 1.254,0.075c 2.463,0, 4.73-0.855, 6.529-2.29c-2.3-0.043-4.242-1.59-4.911-3.715
	c 0.321,0.063, 0.65,0.096, 0.989,0.096c 0.479,0, 0.944-0.066, 1.385-0.188c-2.405-0.492-4.217-2.654-4.217-5.245
	c0-0.023,0-0.045, 0.001-0.067c 0.709,0.401, 1.52,0.641, 2.381,0.669c-1.411-0.959-2.339-2.597-2.339-4.453
	c0-0.98, 0.259-1.899, 0.712-2.689c 2.593,3.237, 6.467,5.366, 10.836,5.589c-0.090-0.392-0.136-0.8-0.136-1.219
	c0-2.954, 2.354-5.349, 5.257-5.349c 1.512,0, 2.879,0.65, 3.838,1.689c 1.198-0.24, 2.323-0.685, 3.338-1.298
	c-0.393,1.249-1.226,2.298-2.311,2.96c 1.063-0.129, 2.077-0.417, 3.019-0.842C 28.108,392.986, 27.216,393.928, 26.189,394.682
	z"></path><path d="M 16,448C 7.163,448,0,455.163,0,464s 7.163,16, 16,16s 16-7.163, 16-16S 24.837,448, 16,448z M 25.195,459.284
	c 0.009,0.203, 0.014,0.408, 0.014,0.614c0,6.269-4.772,13.499-13.499,13.499c-2.679,0-5.173-0.785-7.273-2.132
	c 0.371,0.044, 0.749,0.066, 1.132,0.066c 2.223,0, 4.268-0.759, 5.892-2.031c-2.076-0.038-3.828-1.41-4.432-3.295
	c 0.29,0.055, 0.587,0.085, 0.893,0.085c 0.433,0, 0.852-0.058, 1.25-0.166c-2.17-0.436-3.806-2.353-3.806-4.652
	c0-0.020,0-0.040, 0.001-0.060c 0.64,0.355, 1.371,0.569, 2.149,0.593c-1.273-0.851-2.111-2.303-2.111-3.949
	c0-0.869, 0.234-1.685, 0.642-2.385c 2.34,2.87, 5.836,4.759, 9.779,4.957c-0.081-0.347-0.123-0.709-0.123-1.081
	c0-2.62, 2.124-4.744, 4.744-4.744c 1.365,0, 2.598,0.576, 3.463,1.498c 1.081-0.213, 2.096-0.608, 3.013-1.151
	c-0.354,1.108-1.107,2.038-2.086,2.625c 0.96-0.115, 1.874-0.37, 2.725-0.747
	C 26.927,457.779, 26.122,458.615, 25.195,459.284z"></path><path d="M 26.625,512L 5.375,512 C 2.419,512,0,514.419,0,517.375l0,21.25 c0,2.956, 2.419,5.375, 5.375,5.375l 21.25,0 c 2.956,0, 5.375-2.419, 5.375-5.375L 32,517.375 C 32,514.419, 29.581,512, 26.625,512z M 12,538l-4,0 
	L 8,524 l 4,0 L 12,538 z M 10,522c-1.105,0-2-0.895-2-2s 0.895-2, 2-2s 2,0.895, 2,2S 11.105,522, 10,522z M 26,538l-4,0 L 22,530 
	c0-1.105-0.895-2-2-2s-2,0.895-2,2l0,8 l-4,0 L 14,524 l 4,0 l0,2.483 C 18.825,525.35, 20.086,524, 21.5,524c 2.485,0, 4.5,2.239, 4.5,5
	L 26,538 z"></path></svg>