<?xml version="1.0" encoding="utf-8"?>
<!-- Generator: IcoMoon.io  -->
<!DOCTYPE svg PUBLIC "-//W3C//DTD SVG 1.1//EN" "http://www.w3.org/Graphics/SVG/1.1/DTD/svg11.dtd">
<svg width="24" height="456" viewBox="0 0 24 456" data-tags="google plus, social" style="margin-left: 4px; margin-top: 4px;" xmlns="http://www.w3.org/2000/svg" fill="#ffffff"><path d="M 0.403,434.832c-0.122-1.266-0.226-2.535-0.292-3.815C 0.176,432.297, 0.281,433.566, 0.403,434.832zM 117.954,282.574c 46.005,1.369, 76.867-46.349, 68.931-106.599c-7.947-60.24-51.698-108.584-97.704-109.961
		c-46.013-1.365-76.87,44.741-68.926,105.00C 28.196,231.248, 71.931,281.201, 117.954,282.574zM 512.00,128.00L 512.00,85.345 C 512.00,38.405, 473.609,0.00, 426.671,0.00L 85.343,0.00 C 39.205,0.00, 1.337,37.116, 0.061,82.963
		c 29.181-25.693, 69.662-47.158, 111.437-47.158c 44.652,0.00, 178.622,0.00, 178.622,0.00l-39.974,33.809l-56.634,0.00 
		c 37.565,14.402, 57.578,58.062, 57.578,102.861c0.00,37.624-20.905,69.977-50.444,92.984c-28.822,22.451-34.286,31.854-34.286,50.939
		c0.00,16.289, 30.873,44.00, 47.016,55.394c 47.191,33.269, 62.458,64.156, 62.458,115.728c0.00,8.214-1.021,16.415-3.033,24.48l 153.871,0.00 
		C 473.609,512.00, 512.00,473.625, 512.00,426.655L 512.00,160.001 l-96.00,0.00 L 416.00,256.00 l-32.00,0.00 l0.00-96.00 l-95.999,0.00 l0.00-32.00 L 384.00,128.00 L 384.00,32.00 l 32.00,0.00 l0.00,96.00 L 512.00,128.00 zM 92.943,382.968c 10.807,0.00, 20.711-0.295, 30.968-0.295c-13.573-13.167-24.313-29.30-24.313-49.19
		c0.00-11.804, 3.782-23.168, 9.067-33.26c-5.391,0.385-10.895,0.497-16.563,0.497c-37.178,0.00-68.753-12.038-92.102-31.927l0.00,33.621 
		l 0.003,100.865C 26.723,390.592, 58.447,382.968, 92.943,382.968zM 1.71,443.629c-0.556-2.729-0.983-5.503-1.271-8.317C 0.726,438.126, 1.154,440.90, 1.71,443.629zM 227.725,476.423c-7.529-29.403-34.227-43.982-71.444-69.784c-13.536-4.366-28.447-6.937-44.447-7.104
		c-44.809-0.482-86.554,17.471-110.108,44.186C 9.686,482.574, 44.243,512.00, 85.343,512.00l 143.222,0.00 c 0.908-5.564, 1.348-11.316, 1.348-17.216
		C 229.913,488.517, 229.146,482.388, 227.725,476.423z" transform="scale(0.046875 0.046875)"></path><path d="M 10.242,67.176 C 10.242,68.935 9.155,70.325 6.076,70.438 C 4.272,69.411 2.76,67.931 1.695,66.152 C 2.251,64.781 3.985,63.737 5.969,63.758 C 6.532,63.764 7.056,63.855 7.533,64.009 C 8.843,64.92 9.9,65.489 10.165,66.527 C 10.215,66.738 10.242,66.954 10.242,67.176 ZM 12,48C 8.533,48, 5.409,49.471, 3.219,51.823c 0.866-0.479, 1.888-0.765, 2.974-0.765c 1.572,0, 6.010,0, 6.010,0
		L 10.86,52.467L 9.283,52.467 c 1.113,0.638, 1.705,1.951, 1.705,3.399c0,1.329-0.736,2.4-1.776,3.212
		c-1.014,0.792-1.207,1.124-1.207,1.798c0,0.575, 1.212,1.432, 1.77,1.85c 1.941,1.456, 2.334,2.372, 2.334,4.192
		c0,1.845-1.616,3.682-4.356,4.306C 9.073,71.726, 10.504,72, 12,72c 6.627,0, 12-5.373, 12-12S 18.627,48, 12,48z
		 M 18,57l0,3 l-1.5,0 l0-3 l-3,0 l0-1.5 l 3,0 L 16.5,52.5 l 1.5,0 l0,3 l 3,0 l0,1.5 L 18,57 zM 8.573,55.956 C 8.852,58.084 7.92,59.453 6.301,59.405 C 4.681,59.356 3.141,57.87 2.862,55.743 C 2.582,53.615 3.668,51.987 5.288,52.035 C 6.907,52.084 8.293,53.829 8.573,55.956 ZM 5.177,63.048 C 3.427,63.048 1.94,63.652 0.892,64.545 C 0.317,63.143 0,61.609 0,60 C 0,58.67 0.217,57.39 0.617,56.194 C 0.79,58.525 2.43,60.323 5.139,60.323 C 5.339,60.323 5.532,60.313 5.722,60.299 C 5.536,60.656 5.403,61.054 5.403,61.471 C 5.403,62.173 5.79,62.574 6.267,63.039 C 5.906,63.039 5.558,63.048 5.177,63.048 Z"></path><path d="M 13.497,120L 9,120 L 9,108 l-3,0 l0-4.136 l 3-0.001l-0.005-2.436C 8.995,98.053, 9.91,96, 13.884,96l 3.309,0 l0,4.136 l-2.068,0 
	c-1.548,0-1.622,0.578-1.622,1.657l-0.006,2.070l 3.719,0 l-0.438,4.136L 13.5,108L 13.497,120z"></path><path d="M 20,144L 4,144 C 1.8,144,0,145.8,0,148l0,15.999 C0,166.201, 1.8,168, 4,168l 16,0
	c 2.2,0, 4-1.799, 4-4L 24,148 C 24,145.8, 22.2,144, 20,144z M 20.404,156L 16.5,156 l0,10.5 l-4.5,0 L 12,156 l-2.169,0 l0-3.435 L 12,152.565 
	l0-2.231 C 12,147.303, 13.308,145.5, 16.872,145.5l 4.107,0 l0,3.716 l-3.355,0 c-0.996-0.002-1.119,0.519-1.119,1.489L 16.5,152.565l 4.5,0 
	L 20.404,156z"></path><path d="M 12,192 C 18.627,192 24,197.373 24,204 C 24,210.119 19.419,215.169 13.5,215.907 L 13.5,207 L 17.625,207 L 18,204 L 13.5,204 L 13.5,202.5 C 13.5,201.672 14.172,201 15,201 L 18,201 L 18,198 L 15,198 C 12.515,198 10.5,200.015 10.5,202.5 L 10.5,204 L 8.25,204 L 8.25,207 L 10.5,207 L 10.5,212.93 L 10.5,215.622 L 10.5,215.907 C 4.581,215.169 0,210.119 0,204 C 0,197.373 5.373,192 12,192 Z"></path><path d="M 24,244.557c-0.883,0.392-1.832,0.656-2.828,0.775c 1.017-0.609, 1.797-1.574, 2.165-2.724
	c-0.951,0.564-2.005,0.974-3.127,1.195c-0.898-0.957-2.178-1.555-3.594-1.555c-2.719,0-4.924,2.204-4.924,4.924
	c0,0.386, 0.044,0.762, 0.128,1.122c-4.092-0.205-7.72-2.166-10.149-5.145c-0.424,0.727-0.667,1.573-0.667,2.475
	c0,1.708, 0.869,3.215, 2.19,4.098c-0.807-0.026-1.566-0.247-2.23-0.616c0,0.0210,0.0410,0.062
	c0,2.386, 1.697,4.376, 3.95,4.828c-0.413,0.112-0.848,0.173-1.297,0.173c-0.317,0-0.626-0.031-0.926-0.088
	c 0.627,1.956, 2.445,3.38, 4.6,3.419c-1.685,1.321-3.808,2.108-6.115,2.108c-0.397,0-0.789-0.023-1.175-0.069
	c 2.179,1.397, 4.767,2.212, 7.548,2.212c 9.057,0, 14.009-7.503, 14.009-14.010c0-0.213-0.005-0.426-0.014-0.637
	C 22.505,246.411, 23.34,245.544, 24,244.557z"></path><path d="M 20,288L 4,288 C 1.8,288,0,289.8,0,292.001l0,15.999 C0,310.201, 1.8,312, 4,312l 16,0 
	C 22.2,312, 24,310.201, 24,307.999L 24,292.001 C 24,289.8, 22.2,288, 20,288z M 19.642,296.012
	c 0.008,0.172, 0.011,0.345, 0.011,0.519c0,5.302-3.966,11.416-11.219,11.416c-2.227,0-4.299-0.664-6.044-1.803
	c 0.308,0.037, 0.622,0.056, 0.941,0.056c 1.847,0, 3.547-0.641, 4.897-1.718c-1.725-0.032-3.181-1.192-3.683-2.786
	c 0.241,0.047, 0.488,0.072, 0.742,0.072c 0.36,0, 0.708-0.049, 1.039-0.141c-1.804-0.369-3.163-1.99-3.163-3.934
	c0-0.017,0-0.034, 0-0.050c 0.532,0.3, 1.14,0.481, 1.786,0.502c-1.058-0.719-1.754-1.947-1.754-3.34
	c0-0.735, 0.194-1.424, 0.534-2.017c 1.945,2.427, 4.85,4.025, 8.127,4.192c-0.067-0.294-0.102-0.6-0.102-0.914
	c0-2.216, 1.765-4.012, 3.943-4.012c 1.134,0, 2.159,0.487, 2.878,1.267c 0.898-0.18, 1.742-0.514, 2.504-0.974
	c-0.294,0.937-0.92,1.723-1.734,2.22c 0.797-0.097, 1.557-0.313, 2.265-0.632C 21.081,294.739, 20.412,295.446, 19.642,296.012
	z"></path><path d="M 12,336C 5.373,336,0,341.373,0,348s 5.373,12, 12,12s 12-5.373, 12-12S 18.627,336, 12,336z M 18.896,344.463
	c 0.007,0.153, 0.010,0.306, 0.010,0.46c0,4.702-3.579,10.124-10.124,10.124c-2.009,0-3.88-0.589-5.455-1.599
	c 0.278,0.033, 0.562,0.050, 0.849,0.050c 1.667,0, 3.201-0.569, 4.419-1.523c-1.557-0.029-2.871-1.058-3.324-2.471
	c 0.217,0.041, 0.44,0.064, 0.67,0.064c 0.325,0, 0.639-0.044, 0.937-0.125c-1.628-0.327-2.854-1.765-2.854-3.489
	c0-0.015,0-0.030, 0-0.045c 0.48,0.266, 1.028,0.427, 1.612,0.445c-0.955-0.638-1.583-1.727-1.583-2.962
	c0-0.652, 0.176-1.263, 0.482-1.789c 1.755,2.153, 4.377,3.569, 7.334,3.718c-0.061-0.261-0.092-0.532-0.092-0.811
	c0-1.965, 1.593-3.558, 3.558-3.558c 1.023,0, 1.948,0.432, 2.597,1.124c 0.81-0.16, 1.572-0.456, 2.26-0.863
	c-0.266,0.831-0.83,1.528-1.564,1.969c 0.72-0.086, 1.405-0.277, 2.044-0.56
	C 20.195,343.335, 19.592,343.961, 18.896,344.463z"></path><path d="M 12,403.497c-0.449,0-0.898-0.232-1.363-0.697c-0.183-0.183-0.183-0.48,0-0.663c 0.183-0.183, 0.48-0.183, 0.663,0
		C 11.586,402.423, 11.815,402.563, 12,402.563c 0.185,0, 0.414-0.139, 0.7-0.425c 0.183-0.183, 0.48-0.183, 0.663,0
		c 0.183,0.183, 0.183,0.48,0,0.663C 12.898,403.265, 12.449,403.497, 12,403.497zM 0,396.316 C 0,397.486 0.1,398.546 0.3,399.496 C 0.5,400.447 0.781,401.271 1.144,401.97 C 1.506,402.668 1.965,403.28 2.519,403.806 C 3.073,404.332 3.675,404.765 4.325,405.106 C 4.975,405.446 5.719,405.722 6.556,405.932 C 7.394,406.142 8.246,406.29 9.112,406.374 C 9.979,406.458 10.933,406.5 11.975,406.5 C 13.017,406.5 13.973,406.458 14.844,406.374 C 15.715,406.29 16.569,406.143 17.406,405.932 C 18.244,405.722 18.99,405.446 19.644,405.106 C 20.298,404.765 20.904,404.332 21.462,403.806 C 22.021,403.28 22.481,402.668 22.844,401.97 C 23.206,401.271 23.49,400.447 23.694,399.496 C 23.898,398.546 24,397.486 24,396.316 C 24,394.222 23.35,392.417 22.050,390.903 C 22.125,390.701 22.189,390.469 22.244,390.209 C 22.298,389.948 22.35,389.58 22.4,389.104 C 22.45,388.629 22.431,388.080 22.344,387.458 C 22.256,386.835 22.092,386.2 21.85,385.552 L 21.662,385.514 C 21.537,385.489 21.333,385.497 21.050,385.54 C 20.767,385.582 20.435,385.657 20.056,385.767 C 19.677,385.876 19.188,386.093 18.587,386.417 C 17.988,386.74 17.354,387.151 16.688,387.647 C 15.554,387.302 13.992,386.941 12,386.941 C 10.008,386.941 8.442,387.302 7.3,387.647 C 6.633,387.15 5.998,386.742 5.394,386.423 C 4.79,386.103 4.306,385.884 3.944,385.767 C 3.581,385.649 3.246,385.573 2.938,385.539 C 2.629,385.506 2.431,385.495 2.344,385.508 C 2.256,385.52 2.192,385.535 2.15,385.552 C 1.908,386.2 1.742,386.835 1.65,387.458 C 1.558,388.080 1.537,388.627 1.587,389.098 C 1.637,389.569 1.692,389.939 1.75,390.209 C 1.808,390.478 1.875,390.709 1.95,390.903 C 0.65,392.408 0,394.213 0,396.316 Z M 3.2,398.986 C 3.2,397.626 3.7,396.393 4.7,395.286 C 5,394.949 5.348,394.693 5.744,394.52 C 6.14,394.346 6.59,394.248 7.094,394.224 C 7.598,394.201 8.079,394.205 8.538,394.238 C 8.996,394.271 9.563,394.316 10.238,394.372 C 10.913,394.428 11.496,394.456 11.988,394.456 C 12.479,394.456 13.063,394.428 13.738,394.372 C 14.413,394.316 14.979,394.271 15.438,394.238 C 15.896,394.205 16.377,394.201 16.881,394.224 C 17.386,394.248 17.838,394.346 18.238,394.52 C 18.638,394.693 18.988,394.949 19.288,395.286 C 20.288,396.393 20.788,397.626 20.788,398.986 C 20.788,399.783 20.704,400.494 20.538,401.117 C 20.371,401.741 20.161,402.264 19.906,402.686 C 19.652,403.108 19.296,403.464 18.838,403.755 C 18.379,404.046 17.936,404.271 17.506,404.43 C 17.077,404.59 16.523,404.714 15.844,404.803 C 15.165,404.892 14.556,404.946 14.019,404.965 C 13.481,404.983 12.804,404.993 11.988,404.993 C 11.171,404.993 10.496,404.983 9.963,404.965 C 9.429,404.946 8.823,404.892 8.144,404.803 C 7.465,404.714 6.911,404.59 6.481,404.43 C 6.052,404.271 5.608,404.046 5.15,403.755 C 4.692,403.464 4.335,403.108 4.081,402.686 C 3.827,402.264 3.617,401.741 3.45,401.117 C 3.283,400.494 3.2,399.783 3.2,398.986 ZM 6,398.25A1.5,2.25 2520 1 0 9,398.25A1.5,2.25 2520 1 0 6,398.25zM 15,398.25A1.5,2.25 2520 1 0 18,398.25A1.5,2.25 2520 1 0 15,398.25z"></path><path d="M 19.969,432L 4.031,432 C 1.814,432,0,433.814,0,436.031l0,15.938 c0,2.217, 1.814,4.031, 4.031,4.031l 15.938,0 c 2.217,0, 4.031-1.814, 4.031-4.031L 24,436.031 C 24,433.814, 22.186,432, 19.969,432z M 9,451.5l-3,0 
	L 6,441 l 3,0 L 9,451.5 z M 7.5,439.5c-0.828,0-1.5-0.672-1.5-1.5s 0.672-1.5, 1.5-1.5s 1.5,0.672, 1.5,1.5S 8.328,439.5, 7.5,439.5z M 19.5,451.5l-3,0 L 16.5,445.5 
	c0-0.828-0.672-1.5-1.5-1.5s-1.5,0.672-1.5,1.5l0,6 l-3,0 L 10.5,441 l 3,0 l0,1.863 C 14.119,442.013, 15.064,441, 16.125,441c 1.864,0, 3.375,1.679, 3.375,3.75
	L 19.5,451.5 z"></path></svg>